<?xml version="1.0" encoding="UTF-8" standalone="no"?>
<!DOCTYPE svg PUBLIC "-//W3C//DTD SVG 1.1//EN" "http://www.w3.org/Graphics/SVG/1.1/DTD/svg11.dtd">
<svg width="100%" height="100%" viewBox="0 0 1949 520" version="1.1" xmlns="http://www.w3.org/2000/svg" xmlns:xlink="http://www.w3.org/1999/xlink" xml:space="preserve" xmlns:serif="http://www.serif.com/" style="fill-rule:evenodd;clip-rule:evenodd;stroke-linejoin:round;stroke-miterlimit:2;">
    <g transform="matrix(1,0,0,1,-304.142,-2140.31)">
        <g transform="matrix(0.311703,0,0,0.311703,169.405,2067.24)">
            <g>
                <g>
                    <g transform="matrix(1,0,0,1,43.8815,-70.986)">
                        <g>
                            <g transform="matrix(3.3576,0,0,3.3576,-5.13437,114.459)">
                                <path d="M511.704,305.299L378.284,171.878L378.284,85.146L598.436,305.299L378.284,525.451L378.284,438.719L511.704,305.299Z" style="fill:rgb(17,157,255);"/>
                            </g>
                            <g transform="matrix(-3.3576,4.11187e-16,-4.11187e-16,-3.3576,2397.69,2164.6)">
                                <path d="M511.704,305.299L378.284,171.878L378.284,85.146L598.436,305.299L378.284,525.451L378.284,438.719L511.704,305.299Z" style="fill:rgb(160,9,117);"/>
                            </g>
                        </g>
                        <g transform="matrix(1.12097,0,0,1.12097,-144.712,-137.847)">
                            <g transform="matrix(3.22306e-16,-5.26366,0.81167,4.97005e-17,197.716,7045.31)">
                                <path d="M1121.99,748.522L1196.28,1230.25L1047.71,1230.25L1121.99,748.522Z" style="fill:rgb(160,9,117);"/>
                            </g>
                            <g transform="matrix(3.22306e-16,5.26366,-0.81167,4.97005e-17,2194.84,-4766.25)">
                                <path d="M1121.99,748.522L1196.28,1230.25L1047.71,1230.25L1121.99,748.522Z" style="fill:rgb(17,157,255);"/>
                            </g>
                            <g transform="matrix(1.67566,0,0,1.67566,919.797,863.047)">
                                <g id="plot_ly-icon">
                                    <g>
                                        <g>
                                            <g>
                                                <g>
                                                    <circle cx="195" cy="135" r="15" style="fill:rgb(37,254,253);"/>
                                                    <circle cx="255" cy="75" r="15" style="fill:rgb(37,254,253);"/>
                                                    <circle cx="195" cy="75" r="15" style="fill:rgb(37,254,253);"/>
                                                    <circle cx="135" cy="75" r="15" style="fill:rgb(37,254,253);"/>
                                                    <circle cx="75" cy="75" r="15" style="fill:rgb(37,254,253);"/>
                                                    <circle cx="75" cy="135" r="15" style="fill:rgb(37,254,253);"/>
                                                </g>
                                                <path d="M75,180C66.771,180 60,186.771 60,195L60,255C60,263.229 66.771,270 75,270C83.229,270 90,263.229 90,255L90,195C90,186.771 83.229,180 75,180Z" style="fill:white;fill-rule:nonzero;"/>
                                                <path d="M195,180C186.771,180 180,186.771 180,195L180,255C180,263.229 186.771,270 195,270C203.229,270 210,263.229 210,255L210,195C210,186.771 203.229,180 195,180Z" style="fill:white;fill-rule:nonzero;"/>
                                                <path d="M135,120C126.771,120 120,126.771 120,135L120,255C120,263.229 126.771,270 135,270C143.229,270 150,263.229 150,255L150,135C150,126.771 143.229,120 135,120Z" style="fill:white;fill-rule:nonzero;"/>
                                                <path d="M255,120C246.771,120 240,126.771 240,135L240,255C240,263.229 246.771,270 255,270C263.229,270 270,263.229 270,255L270,135C270,126.771 263.229,120 255,120Z" style="fill:white;fill-rule:nonzero;"/>
                                            </g>
                                        </g>
                                    </g>
                                </g>
                            </g>
                        </g>
                    </g>
                    <g transform="matrix(0.758347,0,0,0.819285,239.112,178.829)">
                        <rect x="254.697" y="99.863" width="2130.68" height="1972.2" style="fill:none;"/>
                    </g>
                </g>
            </g>
        </g>
        <g transform="matrix(0.9921,0,0,0.9921,216.31,2140.09)">
            <g transform="matrix(295.264,0,0,295.264,592.972,365.567)">
                <path d="M0.114,-0.7L0.399,-0.7C0.473,-0.7 0.538,-0.685 0.595,-0.656C0.652,-0.626 0.696,-0.585 0.727,-0.532C0.758,-0.478 0.774,-0.418 0.774,-0.35C0.774,-0.282 0.758,-0.222 0.727,-0.169C0.696,-0.116 0.652,-0.074 0.595,-0.045C0.538,-0.015 0.473,-0 0.399,-0L0.114,-0L0.114,-0.7ZM0.395,-0.064C0.456,-0.064 0.51,-0.076 0.556,-0.101C0.602,-0.125 0.638,-0.159 0.663,-0.202C0.688,-0.245 0.701,-0.294 0.701,-0.35C0.701,-0.406 0.688,-0.456 0.663,-0.499C0.638,-0.542 0.602,-0.575 0.556,-0.6C0.51,-0.624 0.456,-0.636 0.395,-0.636L0.188,-0.636L0.188,-0.064L0.395,-0.064Z" style="fill:rgb(17,157,255);fill-rule:nonzero;"/>
            </g>
            <g transform="matrix(295.264,0,0,295.264,836.86,365.567)">
                <path d="M0.283,-0.53C0.352,-0.53 0.404,-0.513 0.441,-0.478C0.478,-0.444 0.496,-0.393 0.496,-0.326L0.496,-0L0.428,-0L0.428,-0.082C0.412,-0.055 0.389,-0.033 0.358,-0.018C0.327,-0.003 0.29,0.005 0.247,0.005C0.188,0.005 0.142,-0.009 0.107,-0.037C0.072,-0.065 0.055,-0.102 0.055,-0.148C0.055,-0.193 0.071,-0.229 0.103,-0.256C0.136,-0.283 0.187,-0.297 0.258,-0.297L0.425,-0.297L0.425,-0.329C0.425,-0.374 0.412,-0.409 0.387,-0.433C0.362,-0.456 0.325,-0.468 0.276,-0.468C0.243,-0.468 0.211,-0.463 0.18,-0.452C0.149,-0.441 0.123,-0.425 0.101,-0.406L0.069,-0.459C0.096,-0.482 0.128,-0.499 0.165,-0.511C0.202,-0.524 0.242,-0.53 0.283,-0.53ZM0.258,-0.051C0.298,-0.051 0.332,-0.06 0.361,-0.079C0.39,-0.097 0.411,-0.123 0.425,-0.158L0.425,-0.244L0.26,-0.244C0.17,-0.244 0.125,-0.213 0.125,-0.15C0.125,-0.119 0.137,-0.095 0.16,-0.078C0.183,-0.06 0.216,-0.051 0.258,-0.051Z" style="fill:rgb(17,157,255);fill-rule:nonzero;"/>
            </g>
            <g transform="matrix(295.264,0,0,295.264,1011.07,365.567)">
                <path d="M0.24,0.005C0.197,0.005 0.157,-0.001 0.117,-0.014C0.079,-0.026 0.048,-0.041 0.026,-0.06L0.058,-0.116C0.08,-0.099 0.108,-0.085 0.141,-0.074C0.174,-0.063 0.209,-0.057 0.245,-0.057C0.293,-0.057 0.329,-0.065 0.352,-0.08C0.375,-0.095 0.386,-0.116 0.386,-0.143C0.386,-0.162 0.38,-0.178 0.367,-0.189C0.354,-0.2 0.338,-0.208 0.319,-0.214C0.3,-0.219 0.274,-0.225 0.242,-0.23C0.199,-0.238 0.165,-0.246 0.139,-0.255C0.113,-0.263 0.091,-0.277 0.073,-0.297C0.054,-0.317 0.045,-0.345 0.045,-0.38C0.045,-0.424 0.063,-0.46 0.1,-0.488C0.137,-0.516 0.188,-0.53 0.253,-0.53C0.287,-0.53 0.321,-0.526 0.355,-0.517C0.389,-0.507 0.417,-0.496 0.439,-0.481L0.408,-0.424C0.365,-0.454 0.313,-0.469 0.253,-0.469C0.208,-0.469 0.173,-0.461 0.151,-0.445C0.128,-0.429 0.116,-0.408 0.116,-0.382C0.116,-0.362 0.123,-0.346 0.136,-0.334C0.149,-0.322 0.165,-0.313 0.184,-0.308C0.203,-0.302 0.23,-0.296 0.264,-0.29C0.306,-0.282 0.34,-0.274 0.365,-0.266C0.39,-0.258 0.412,-0.244 0.43,-0.225C0.448,-0.206 0.457,-0.179 0.457,-0.145C0.457,-0.099 0.438,-0.063 0.4,-0.035C0.361,-0.009 0.308,0.005 0.24,0.005Z" style="fill:rgb(17,157,255);fill-rule:nonzero;"/>
            </g>
            <g transform="matrix(295.264,0,0,295.264,1155.45,365.567)">
                <path d="M0.367,-0.53C0.433,-0.53 0.486,-0.511 0.525,-0.472C0.564,-0.434 0.583,-0.378 0.583,-0.305L0.583,-0L0.512,-0L0.512,-0.298C0.512,-0.353 0.498,-0.394 0.471,-0.423C0.444,-0.452 0.405,-0.466 0.354,-0.466C0.297,-0.466 0.253,-0.449 0.22,-0.416C0.187,-0.382 0.17,-0.335 0.17,-0.276L0.17,-0L0.099,-0L0.099,-0.742L0.17,-0.742L0.17,-0.434C0.189,-0.465 0.216,-0.488 0.25,-0.505C0.284,-0.522 0.323,-0.53 0.367,-0.53Z" style="fill:rgb(17,157,255);fill-rule:nonzero;"/>
            </g>
            <g transform="matrix(295.264,0,0,295.264,1355.34,365.567)">
                <path d="M0.106,0.005C0.091,0.005 0.079,-0 0.069,-0.011C0.058,-0.022 0.053,-0.035 0.053,-0.05C0.053,-0.065 0.058,-0.078 0.069,-0.089C0.079,-0.099 0.091,-0.104 0.106,-0.104C0.121,-0.104 0.133,-0.099 0.144,-0.089C0.155,-0.078 0.16,-0.065 0.16,-0.05C0.16,-0.035 0.155,-0.022 0.144,-0.011C0.133,-0 0.121,0.005 0.106,0.005Z" style="fill:rgb(160,9,117);fill-rule:nonzero;"/>
            </g>
            <g transform="matrix(295.264,0,0,295.264,1417.94,365.567)">
                <path d="M0.699,-0.7L0.699,-0L0.638,-0L0.188,-0.568L0.188,-0L0.114,-0L0.114,-0.7L0.175,-0.7L0.626,-0.132L0.626,-0.7L0.699,-0.7Z" style="fill:rgb(160,9,117);fill-rule:nonzero;"/>
            </g>
            <g transform="matrix(295.264,0,0,295.264,1657.99,365.567)">
                <path d="M0.609,-0.064L0.609,-0L0.114,-0L0.114,-0.7L0.594,-0.7L0.594,-0.636L0.188,-0.636L0.188,-0.387L0.55,-0.387L0.55,-0.324L0.188,-0.324L0.188,-0.064L0.609,-0.064Z" style="fill:rgb(160,9,117);fill-rule:nonzero;"/>
            </g>
            <g transform="matrix(295.264,0,0,295.264,1855.52,365.567)">
                <path d="M0.25,-0.636L0.004,-0.636L0.004,-0.7L0.57,-0.7L0.57,-0.636L0.324,-0.636L0.324,-0L0.25,-0L0.25,-0.636Z" style="fill:rgb(160,9,117);fill-rule:nonzero;"/>
            </g>
        </g>
    </g>
</svg>
